# xmcd
# Track frame offsets:
# 150
# 14732
# 28512
# 43532
# 54139
# 69177
# 82420
# 97535
# 112097
# 127707
#
# Disc length: 1878 seconds
# Revision: 0
# Processed by: cddbd v1.4PL0 Copyright (c) Steve Scherf et al.
# Submitted via: VisiTrax 2.9.5.180 - For more info visit www.synapsa.com
#
DISCID=7307540a
DTITLE=Hammond Brothers - The best of
DYEAR=1900
DGENRE=
TTITLE0=You knocked out me heart tonight
TTITLE1=Oldest emotion known to man
TTITLE2=So far so good
TTITLE3=Rusty Dusty
TTITLE4=After all these years
TTITLE5=If teardrops were pennies
TTITLE6=Winning hand
TTITLE7=Hills and valleys
TTITLE8=Baby Dances
TTITLE9=As long as I have you
EXTD=
EXTT0=
EXTT1=
EXTT2=
EXTT3=
EXTT4=
EXTT5=
EXTT6=
EXTT7=
EXTT8=
EXTT9=
PLAYORDER=
